<?xml version="1.0" encoding="UTF-8" standalone="no"?>
<!-- Created with Inkscape (http://www.inkscape.org/) -->

<svg
   width="763"
   height="233"
   viewBox="0 0 201.87707 61.647917"
   version="1.1"
   id="svg908"
   inkscape:version="1.1 (ce6663b3b7, 2021-05-25)"
   sodipodi:docname="shunya logo numbers &amp; tag line ver O-5 clean 763 X 233 px.svg"
   inkscape:export-filename="/home/shunya/Documents/gitlab/shunyacreatives/shunya/logo/shunya logo words&amp; tag line 762 x233 px black ver O-5 clean.png"
   inkscape:export-xdpi="96"
   inkscape:export-ydpi="96"
   xmlns:inkscape="http://www.inkscape.org/namespaces/inkscape"
   xmlns:sodipodi="http://sodipodi.sourceforge.net/DTD/sodipodi-0.dtd"
   xmlns="http://www.w3.org/2000/svg"
   xmlns:svg="http://www.w3.org/2000/svg">
  <sodipodi:namedview
     id="namedview910"
     pagecolor="#ffffff"
     bordercolor="#666666"
     borderopacity="1.0"
     inkscape:pageshadow="2"
     inkscape:pageopacity="0.0"
     inkscape:pagecheckerboard="0"
     inkscape:document-units="px"
     showgrid="false"
     units="px"
     inkscape:zoom="0.5"
     inkscape:cx="397"
     inkscape:cy="561"
     inkscape:window-width="1920"
     inkscape:window-height="1016"
     inkscape:window-x="1366"
     inkscape:window-y="27"
     inkscape:window-maximized="1"
     inkscape:current-layer="layer1" />
  <defs
     id="defs905" />
  <g
     inkscape:groupmode="layer"
     id="layer2"
     inkscape:label="Layer 2"
     style="display:none">
    <rect
       style="display:inline;fill:#f4f4f4;stroke:#f4f4f4;stroke-width:0.450701;paint-order:markers stroke fill"
       id="rect12023"
       width="201.59599"
       height="61.197216"
       x="0.2253512"
       y="0.22535007" />
  </g>
  <g
     inkscape:label="Layer 1"
     inkscape:groupmode="layer"
     id="layer1"
     style="display:inline">
    <g
       id="g1066"
       transform="matrix(1.0102334,0,0,1.0102334,-98.442671,-0.45593582)">
      <g
         id="g126899"
         style="display:inline"
         transform="matrix(0.53226992,0,0,0.53226992,83.928557,-38.459962)">
        <g
           id="g98386"
           transform="translate(4.8915474)">
          <g
             id="g98183"
             style="display:inline"
             transform="translate(16.404169)">
            <g
               aria-label="shunya.ek"
               id="text8347"
               style="font-size:73.9144px;line-height:1.25;letter-spacing:0px;display:inline;stroke:none;stroke-width:2.99008">
              <path
                 d="m 52.7773,149.73535 q -6.749019,0 -11.476942,-4.98056 l 1.732368,-1.6241 q 2.779009,2.92338 6.785111,3.86174 2.093279,0.50528 3.500829,0.32482 3.536919,-0.21655 5.738471,-2.09328 2.562462,-2.23764 2.345916,-6.20765 -0.216546,-2.99556 -2.382007,-4.65574 -2.201552,-1.69628 -7.146021,-2.59856 -10.033302,-1.91282 -10.502485,-9.52802 -0.288728,-4.22265 2.526371,-7.39866 2.815099,-3.13992 7.001657,-3.42865 1.876732,-0.14436 4.330921,0.397 4.800105,1.08273 8.120479,4.54747 l -1.732369,1.66019 q -4.511377,-4.76402 -10.538576,-4.22265 -3.248192,0.21654 -5.377562,2.63464 -2.16546,2.4181 -1.985005,5.6302 0.36091,5.81065 8.589661,7.36257 5.016651,0.93836 7.615204,2.67073 3.573011,2.38201 3.861739,6.78511 0.288728,4.94447 -2.959463,7.94003 -2.851191,2.63464 -7.326476,2.88728 -0.288728,0.0361 -0.721821,0.0361 z"
                 style="font-family:Generica;-inkscape-font-specification:Generica;stroke:none;stroke-width:0.79375;stroke-linejoin:round;stroke-miterlimit:15;stroke-dasharray:none;stroke-opacity:1"
                 id="path14411" />
              <path
                 d="m 88.157398,111.22624 q -8.156569,0 -12.595764,6.89338 V 96.862012 h -2.382007 v 51.790608 h 2.382007 v -22.44861 q 0,-5.19711 3.681283,-8.91448 3.717375,-3.68129 8.914481,-3.68129 5.233197,0 8.914481,3.68129 3.717381,3.71737 3.717381,8.91448 v 22.44861 h 2.38199 v -22.44861 q 0,-6.17157 -4.403094,-10.57467 -4.403103,-4.4031 -10.610758,-4.4031 z"
                 style="font-family:Generica;-inkscape-font-specification:Generica;stroke:none;stroke-width:0.79375;stroke-linejoin:round;stroke-miterlimit:4;stroke-dasharray:none;stroke-opacity:1"
                 id="path14413" />
              <path
                 d="m 123.77852,149.73535 q -6.17156,0 -10.57467,-4.4031 -4.4031,-4.40311 -4.4031,-10.57467 v -22.41252 h 2.382 v 22.41252 q 0,5.1971 3.68129,8.91448 3.71737,3.68128 8.91448,3.68128 5.2332,0 8.91448,-3.68128 3.71737,-3.71738 3.71737,-8.91448 v -22.41252 h 2.38201 v 22.41252 q 0,6.17156 -4.4031,10.57467 -4.40311,4.4031 -10.61076,4.4031 z"
                 style="font-family:Generica;-inkscape-font-specification:Generica;stroke:none;stroke-width:0.79375;stroke-linejoin:round;stroke-miterlimit:4;stroke-dasharray:none;stroke-opacity:1"
                 id="path14415" />
              <path
                 d="m 209.63767,112.38115 -14.58077,35.18874 -14.61687,-35.18874 h -2.56246 l 15.04996,36.30756 h 1.66018 l -7.29038,17.57632 h 2.56246 l 22.34034,-53.88388 z"
                 style="font-family:Generica;-inkscape-font-specification:Generica;stroke:none;stroke-width:0.79375;stroke-linejoin:round;stroke-miterlimit:4;stroke-dasharray:none;stroke-opacity:1"
                 id="path14419" />
              <path
                 id="path14421"
                 style="font-family:Generica;-inkscape-font-specification:Generica;stroke:none;stroke-width:3;stroke-linejoin:round;stroke-miterlimit:4;stroke-dasharray:none;stroke-opacity:1"
                 d="m 952.43164,420.15234 c -7.87403,0 -15.38949,1.20011 -22.55664,3.56641 -10.74864,3.40994 -20.44859,9.43297 -29.0957,18.08008 -14.18631,14.1863 -21.2793,31.32848 -21.2793,51.42578 0,20.00636 7.09299,37.14655 21.2793,51.42383 14.27728,14.18634 31.41942,21.28125 51.42578,21.28125 13.54976,0 26.05351,-3.50169 37.51172,-10.50391 11.1854,-6.72941 19.9605,-15.82304 26.3262,-27.28125 v 33.55664 h 9.0039 V 496.8125 c 0.059,-1.26093 0.09,-2.53394 0.09,-3.81836 0,-20.0973 -7.093,-37.23948 -21.2793,-51.42578 -14.27724,-14.27728 -31.4194,-21.41602 -51.42576,-21.41602 z m -0.22656,9.23243 c 17.64196,0 32.69189,6.229 45.15039,18.6875 12.45853,12.45849 18.68753,27.51037 18.68753,45.15234 0,17.55103 -6.229,32.55518 -18.68753,45.01367 -12.4585,12.4585 -27.50843,18.6875 -45.15039,18.6875 -17.55103,0 -32.55518,-6.229 -45.01367,-18.6875 -12.4585,-12.45849 -18.6875,-27.46264 -18.6875,-45.01367 0,-17.64197 6.229,-32.69385 18.6875,-45.15234 12.45849,-12.4585 27.46264,-18.6875 45.01367,-18.6875 z"
                 transform="matrix(0.26458333,0,0,0.26458333,-21.295716,0)" />
              <path
                 d="m 159.43575,111.24429 q 6.17156,0 10.57467,4.4031 4.4031,4.40311 4.4031,10.57467 v 22.41251 h -2.382 v -22.41252 q 0,-5.1971 -3.68129,-8.91447 -3.71737,-3.68128 -8.91448,-3.68128 -5.2332,0 -8.91448,3.68128 -3.71737,3.71738 -3.71737,8.91447 v 22.41252 h -2.38201 v -22.41252 q 0,-6.17156 4.4031,-10.57466 4.40311,-4.4031 10.61076,-4.4031 z"
                 style="font-family:Generica;-inkscape-font-specification:Generica;stroke:none;stroke-width:0.79375;stroke-linejoin:round;stroke-miterlimit:4;stroke-dasharray:none;stroke-opacity:1"
                 id="path18164" />
            </g>
            <circle
               style="display:inline;fill:#000000;fill-opacity:1;stroke:#010000;stroke-width:0.0624293;stroke-linecap:round;stroke-linejoin:round;stroke-miterlimit:4;stroke-dasharray:none;stroke-opacity:1"
               id="circle112983-3"
               cx="258.89804"
               cy="-146.84375"
               transform="scale(1,-1)"
               r="2.7469103" />
            <g
               aria-label="ek"
               id="text2104-6"
               style="font-size:73.9144px;line-height:1.25;display:inline;stroke:#000000;stroke-width:2.11667;stroke-linejoin:round;stroke-miterlimit:4;stroke-dasharray:none"
               transform="translate(5.8533024,-0.10042184)">
              <path
                 d="m 260.12838,129.3989 q 0.46919,-6.60465 5.30538,-11.11603 4.87229,-4.58356 11.51304,-4.58356 6.67683,0 11.51303,4.58356 4.87229,4.51138 5.30538,11.11603 z m 36.09102,1.19101 q 0,-7.97612 -5.66629,-13.60631 -5.6302,-5.66629 -13.60631,-5.66629 -7.94003,0 -13.60632,5.66629 -5.63019,5.63019 -5.63019,13.60631 0,7.94002 5.63019,13.60631 5.66629,5.6302 13.60632,5.6302 7.97611,0 13.60631,-5.6302 l -1.66019,-1.69628 q -4.94447,4.94447 -11.94612,4.94447 -6.64075,0 -11.51304,-4.54747 -4.83619,-4.54746 -5.30538,-11.11603 h 36.09102 z"
                 style="font-family:Generica;-inkscape-font-specification:Generica;stroke-width:2.11667;stroke-linejoin:round;stroke-miterlimit:4;stroke-dasharray:none"
                 id="path45249" />
              <path
                 d="m 302.37138,102.20348 v 46.44914 h 2.38201 v -8.08439 l 9.96112,-9.6363 15.80786,17.72069 h 3.2121 l -17.32368,-19.38088 17.43196,-16.92668 h -3.42865 l -25.66071,24.9028 v -35.04438 z"
                 style="font-family:Generica;-inkscape-font-specification:Generica;stroke-width:2.11667;stroke-linejoin:round;stroke-miterlimit:4;stroke-dasharray:none"
                 id="path45251" />
            </g>
          </g>
          <text
             xml:space="preserve"
             style="font-style:normal;font-variant:normal;font-weight:300;font-stretch:normal;font-size:10.4223px;line-height:1.25;font-family:poppins;-inkscape-font-specification:'poppins Light';letter-spacing:0.529167px;stroke-width:0.229905"
             x="220.63643"
             y="161.06364"
             id="text48188"><tspan
               sodipodi:role="line"
               style="font-style:normal;font-variant:normal;font-weight:300;font-stretch:normal;font-size:10.4223px;font-family:poppins;-inkscape-font-specification:'poppins Light';stroke-width:0.229905"
               x="220.63643"
               y="161.06364"
               id="tspan48190">wherever you are it's a start</tspan></text>
        </g>
      </g>
    </g>
  </g>
</svg>
